<?xml version="1.0" encoding="UTF-8" standalone="no"?>
<!-- Created with Inkscape (http://www.inkscape.org/) -->

<svg
   width="172.83615mm"
   height="29.899572mm"
   viewBox="0 0 172.83615 29.899572"
   version="1.1"
   id="svg1"
   xml:space="preserve"
   inkscape:version="1.4 (e7c3feb100, 2024-10-09)"
   sodipodi:docname="logos.svg"
   xmlns:inkscape="http://www.inkscape.org/namespaces/inkscape"
   xmlns:sodipodi="http://sodipodi.sourceforge.net/DTD/sodipodi-0.dtd"
   xmlns="http://www.w3.org/2000/svg"
   xmlns:svg="http://www.w3.org/2000/svg"><sodipodi:namedview
     id="namedview1"
     pagecolor="#5c4c56"
     bordercolor="#eeeeee"
     borderopacity="1"
     inkscape:showpageshadow="0"
     inkscape:pageopacity="0"
     inkscape:pagecheckerboard="0"
     inkscape:deskcolor="#505050"
     inkscape:document-units="mm"
     inkscape:zoom="0.51780096"
     inkscape:cx="1331.5927"
     inkscape:cy="-359.21139"
     inkscape:window-width="1920"
     inkscape:window-height="1048"
     inkscape:window-x="0"
     inkscape:window-y="0"
     inkscape:window-maximized="1"
     inkscape:current-layer="layer1"><inkscape:page
       x="0"
       y="0"
       width="172.83615"
       height="29.899572"
       id="page2"
       margin="0"
       bleed="0" /></sodipodi:namedview><defs
     id="defs1" /><g
     inkscape:label="Layer 1"
     inkscape:groupmode="layer"
     id="layer1"
     transform="translate(-258.97858,56.81612)"><path
       id="path35-5"
       style="font-size:17.6328px;line-height:1.1;font-family:'Dela Gothic One';-inkscape-font-specification:'Dela Gothic One, Normal';fill:#7fc9c2;fill-opacity:1;stroke-width:0.913791;stroke-linecap:square;paint-order:stroke fill markers"
       d="m 423.81353,-50.503312 c -2.6072,0 -4.93723,0.46624 -6.99018,1.398433 -1.22865,0.55788 -2.24428,1.30507 -3.05615,2.23337 h 16.78615 c 0.44291,-0.53022 0.86795,-1.02762 1.26139,-1.46885 -0.9787,-0.67001 -2.18359,-1.19453 -3.6145,-1.57322 -1.40976,-0.393273 -2.8719,-0.589723 -4.38671,-0.589733 z m -100.95131,0.41492 -1.45477,3.216883 h 5.41824 l 1.45476,-3.216883 z m 12.9341,0 -1.4554,3.216883 h 5.41887 l 1.45477,-3.216883 z m 27.23461,0.0218 -1.44516,3.195103 h 12.69399 l 1.44515,-3.195103 z m 14.44137,0 c -0.45233,1.100403 -0.89768,2.149933 -1.34271,3.195103 h 17.04356 c 10e-4,-0.6231 -0.14002,-1.16696 -0.44117,-1.62188 -0.66836,-1.03414 -2.45185,-1.551453 -5.35036,-1.551453 h -4.54423 l 0.01,-0.0218 z m 22.48229,0 -2.67774,3.195103 h 10.51312 l 0.20426,-3.195103 z m -57.01187,0.0218 c -0.44987,1.094413 -0.89207,2.135733 -1.33373,3.173333 h 9.31318 l 0.0608,-3.173333 z m 12.97765,0 -1.33887,3.173333 h 5.16148 c 0.51396,-1.08156 1.02604,-2.15195 1.53032,-3.173333 z m -35.85692,6.144983 -1.20312,2.65982 c -1.01074,2.17024 -1.18614,3.92582 -0.52504,5.26583 0.66768,1.32546 2.72034,1.98815 6.15778,1.98815 3.39373,0 6.12063,-0.69936 8.1805,-2.09763 2.07438,-1.39828 3.61064,-3.16828 4.60825,-5.30939 l 1.13397,-2.50678 h -5.41888 l -0.95596,2.11363 c -0.30964,0.68458 -0.62131,1.24575 -0.93549,1.68271 -0.29959,0.43697 -0.82333,0.83708 -1.57066,1.20121 -0.74072,0.34958 -1.73695,0.52441 -2.98956,0.52441 -1.15067,0 -1.90939,-0.17483 -2.27564,-0.52441 -0.35168,-0.34956 -0.48956,-0.72086 -0.41364,-1.11412 0.0971,-0.40783 0.29089,-0.93235 0.58076,-1.57323 l 1.04497,-2.3102 z m 20.25468,0 c -0.25901,0.58642 -0.52189,1.19787 -0.77796,1.76403 -1.11339,2.46155 -2.36718,5.1051 -3.76178,7.93077 h 5.61482 l 4.06527,-9.6948 z m 6.05662,0 -0.0877,9.6948 h 7.82193 c 1.01142,-2.46154 2.15587,-5.10509 3.43394,-7.93077 0.27452,-0.60693 0.54255,-1.17339 0.81446,-1.76403 h -5.03024 l -2.57914,6.11232 0.11721,-6.11232 z m 17.69027,0 -2.48757,5.50019 c -0.86734,-0.0146 -2.11861,-0.0657 -3.7541,-0.15304 l -1.96636,4.34765 h 12.69334 l 1.96637,-4.34765 c -1.75824,0.0874 -3.06277,0.13848 -3.91417,0.15304 l 2.48757,-5.50019 z m 10.02309,1.6521 c 0,0 -2.39515,5.21703 -3.78975,8.0427 h 5.3747 l 1.73906,-3.84501 h 4.54423 c 1.99545,0 3.67333,-0.24753 5.0334,-0.74274 1.36669,-0.50979 2.47682,-1.20914 3.33021,-2.09763 0.79785,-0.83781 1.46993,-1.84567 2.02656,-3.00942 h -4.94249 c -0.20945,0.418 -0.46946,0.75252 -0.79653,0.97774 -0.34505,0.2476 -0.84684,0.42245 -1.50471,0.52441 -0.63672,0.0874 -1.55974,0.13125 -2.76867,0.13125 h -3.01454 z m 20.6986,-1.6521 -8.12414,9.6948 h 5.48355 l 2.50549,-3.12403 h 6.96969 c -0.10049,1.25263 -0.20026,2.29381 -0.29901,3.12403 h 5.65898 l 0.61917,-9.6948 h -5.4272 c -0.0814,1.05422 -0.16018,2.10822 -0.25549,3.16245 h -4.4789 c 1.1594,-1.41069 1.75852,-2.12708 2.61499,-3.16245 z m 17.33874,0 c -0.19846,0.94819 0.10681,1.66968 0.93037,2.15781 1.06332,0.61175 3.08079,0.91756 6.05214,0.91756 2.70915,0 3.86269,0.44397 3.46081,1.33246 -0.11201,0.24762 -0.465,0.48073 -1.05906,0.69922 -0.58745,0.20391 -1.48544,0.30606 -2.69437,0.30606 -1.17981,0 -2.37833,-0.16764 -3.59595,-0.50264 -1.21761,-0.335 -2.20889,-0.80124 -2.97292,-1.39842 -0.68797,0.8448 -1.34405,1.58738 -1.96892,2.22826 -0.61032,0.64087 -1.3311,1.33301 -2.1623,2.07586 1.03036,0.68456 2.30074,1.20908 3.81108,1.57322 1.51689,0.34956 3.08369,0.52441 4.70044,0.52441 3.01505,0 5.46634,-0.44463 7.35388,-1.33312 1.89414,-0.90305 3.30239,-2.37381 4.22471,-4.41296 0.65881,-1.45654 0.44688,-2.53439 -0.63518,-3.23353 -0.71324,-0.47332 -1.9118,-0.77477 -3.51013,-0.93419 z"
       sodipodi:nodetypes="ssccccscccccccccccccccccccscccccccccccccccccccccsccccsccsccccccscccccccsccccccccccccccccccsccccccscccccccccccccccccsscssccccscsccc" /><rect
       style="fill:#7fc9c2;fill-opacity:1;stroke:none;stroke-width:0.603596;stroke-linecap:square;stroke-opacity:1;paint-order:stroke fill markers"
       id="rect35-8"
       width="50.05994"
       height="32.306976"
       x="245.73154"
       y="-61.390747"
       ry="7.225419"
       transform="matrix(1,0,-0.37878819,0.92548339,0,0)" /><path
       d="m 264.03013,-50.135416 h 5.7839 v 9.282236 q -0.0466,3.428364 -2.35554,5.667295 -2.28557,2.238931 -7.71965,2.238931 -5.50404,0 -7.53307,-2.12232 -2.02903,-2.145643 -1.98239,-5.62065 v -9.445492 h 5.78391 v 9.072336 q 0,1.026177 0.13993,1.679199 0.16326,0.629699 0.97954,1.189432 0.8396,0.559733 2.68205,0.559733 2.00571,0 2.9386,-0.559733 0.93288,-0.583055 1.09614,-1.282721 0.18658,-0.699666 0.18658,-1.795809 z m 18.23796,0.04664 q 4.64112,0 6.46025,1.655876 1.81913,1.632554 1.81913,4.617796 0,2.052353 -0.72299,3.49833 -0.72298,1.422654 -2.54212,2.238931 -1.81913,0.792955 -5.01427,0.792955 h -4.85102 v 4.104707 h -5.73726 q 0.18658,-4.524507 0.18658,-8.465959 0,-3.941452 -0.18658,-8.465959 h 5.73726 v 0.02332 z m -1.63255,8.302703 q 1.93574,0 2.89195,-0.139933 0.97953,-0.163255 1.35269,-0.559733 0.39647,-0.396477 0.39647,-1.16611 0,-0.769633 -0.37315,-1.142788 -0.34983,-0.396477 -1.32937,-0.53641 -0.95621,-0.139934 -2.93859,-0.139934 h -3.21847 v 3.684908 z"
       id="text36-6"
       style="font-size:23.3222px;line-height:1.1;font-family:'Dela Gothic One';-inkscape-font-specification:'Dela Gothic One, Normal';fill:#f9f9f9;stroke-width:0.975443;stroke-linecap:square;paint-order:stroke fill markers"
       transform="skewX(-22.50727)"
       aria-label="UP" /></g></svg>
