<?xml version="1.0" encoding="UTF-8" standalone="no"?>
<!-- Created with Inkscape (http://www.inkscape.org/) -->

<svg
   width="210mm"
   height="297mm"
   viewBox="0 0 210 297"
   version="1.1"
   id="svg1"
   inkscape:version="1.4 (e7c3feb100, 2024-10-09)"
   sodipodi:docname="logos2.svg"
   xmlns:inkscape="http://www.inkscape.org/namespaces/inkscape"
   xmlns:sodipodi="http://sodipodi.sourceforge.net/DTD/sodipodi-0.dtd"
   xmlns="http://www.w3.org/2000/svg"
   xmlns:svg="http://www.w3.org/2000/svg">
  <sodipodi:namedview
     id="namedview1"
     pagecolor="#5c4c56"
     bordercolor="#eeeeee"
     borderopacity="1"
     inkscape:showpageshadow="0"
     inkscape:pageopacity="0"
     inkscape:pagecheckerboard="0"
     inkscape:deskcolor="#505050"
     inkscape:document-units="mm"
     inkscape:zoom="4.1424077"
     inkscape:cx="498.14025"
     inkscape:cy="495.12268"
     inkscape:window-width="1920"
     inkscape:window-height="1048"
     inkscape:window-x="0"
     inkscape:window-y="0"
     inkscape:window-maximized="1"
     inkscape:current-layer="layer1" />
  <defs
     id="defs1" />
  <g
     inkscape:label="Layer 1"
     inkscape:groupmode="layer"
     id="layer1">
    <text
       xml:space="preserve"
       style="font-size:5.64444px;line-height:1.1;font-family:Z003;-inkscape-font-specification:'Z003, Normal';text-align:center;writing-mode:lr-tb;direction:ltr;text-anchor:middle;fill:#f2f2f2;stroke-width:0.4;stroke-linecap:round;paint-order:stroke fill markers"
       x="65.397812"
       y="110.92336"
       id="text1"><tspan
         sodipodi:role="line"
         id="tspan1"
         style="font-style:normal;font-variant:normal;font-weight:normal;font-stretch:normal;font-size:5.64444px;font-family:'Playfair Display';-inkscape-font-specification:'Playfair Display, @wght=800';font-variant-ligatures:normal;font-variant-caps:normal;font-variant-numeric:normal;font-variant-east-asian:normal;font-variation-settings:'wght' 800;fill:#f2f2f2;stroke-width:0.4"
         x="65.397812"
         y="110.92336">Unipas</tspan></text>
    <rect
       style="font-variation-settings:'wght' 400;fill:#5c4c56;fill-opacity:1;stroke:none;stroke-width:0.4;stroke-linecap:round;paint-order:stroke fill markers"
       id="rect1"
       width="11.22532"
       height="11.22532"
       x="228.04176"
       y="113.78973"
       ry="5.6126599" />
    <rect
       style="font-variation-settings:'wght' 400;fill:#3d313b;fill-opacity:1;stroke:none;stroke-width:0.4;stroke-linecap:round;paint-order:stroke fill markers"
       id="rect2"
       width="11.22532"
       height="11.22532"
       x="236.65402"
       y="100.71946"
       ry="5.6126599" />
    <rect
       style="font-variation-settings:'wght' 400;fill:#7fc9c2;fill-opacity:1;stroke:none;stroke-width:0.4;stroke-linecap:round;paint-order:stroke fill markers"
       id="rect5"
       width="11.22532"
       height="11.22532"
       x="245.16039"
       y="113.78973"
       ry="5.6126599" />
    <rect
       style="font-variation-settings:'wght' 400;fill:#f5f4ef;fill-opacity:1;stroke:none;stroke-width:0.4;stroke-linecap:round;paint-order:stroke fill markers"
       id="rect7"
       width="11.22532"
       height="11.22532"
       x="253.77264"
       y="100.71946"
       ry="5.6126599" />
    <rect
       style="font-variation-settings:'wght' 400;fill:#f6b65f;fill-opacity:1;stroke:none;stroke-width:0.4;stroke-linecap:round;paint-order:stroke fill markers"
       id="rect8"
       width="11.22532"
       height="11.22532"
       x="261.90482"
       y="113.78973"
       ry="5.6126599" />
    <rect
       style="font-variation-settings:'wght' 400;fill:#f0525a;fill-opacity:1;stroke:none;stroke-width:0.4;stroke-linecap:round;paint-order:stroke fill markers"
       id="rect9"
       width="11.22532"
       height="11.22532"
       x="270.51709"
       y="100.71946"
       ry="5.6126599" />
    <g
       id="g141"
       inkscape:export-filename="../icons/logo.png"
       inkscape:export-xdpi="85.854439"
       inkscape:export-ydpi="85.854439">
      <path
         id="path55"
         style="-inkscape-font-specification:'Albatross Cursive, Normal';fill:#7fc9c2;stroke-linecap:round;paint-order:stroke fill markers;stroke:#f5f4ef;stroke-opacity:1;stroke-width:2;stroke-dasharray:none"
         d="M 130.53312 166.5919 C 130.13059 166.5919 129.73366 166.63195 129.34766 166.71489 C 128.95424 166.79249 128.5688 166.91989 128.20923 167.12313 L 128.19528 167.13088 L 128.18339 167.13915 C 127.81999 167.35389 127.49165 167.66235 127.25011 168.02747 C 126.95919 168.45978 126.826 168.97826 126.8243 169.44547 C 126.29507 169.23921 125.72684 169.13903 125.15257 169.13903 C 124.36749 169.13903 123.61811 169.46503 122.97441 169.93226 C 122.33293 169.38909 121.53489 169.20363 120.77144 169.20363 C 120.57725 169.20363 120.38352 169.22492 120.19111 169.25582 C 120.16273 169.21557 120.14144 169.17551 120.10533 169.1349 C 119.88446 168.88643 119.59131 168.74677 119.32347 168.67187 C 119.28768 168.61558 119.25381 168.55947 119.20306 168.50238 C 118.85584 168.11176 118.31956 167.96908 118.00365 167.96908 C 117.66124 167.96908 117.1034 168.17942 116.78512 168.56077 C 116.58171 168.52297 116.51728 168.52925 116.20893 168.44191 L 116.20479 168.44191 C 115.86344 168.33964 115.58879 168.26082 115.37694 168.20369 C 115.26828 168.17439 115.17486 168.15007 115.08186 168.12927 C 114.98886 168.10837 114.99134 168.07295 114.63848 168.07295 C 114.34569 168.07295 113.89711 168.15209 113.51555 168.48274 C 113.44725 168.54194 113.46852 168.62025 113.41375 168.68789 C 113.00306 168.46331 112.57831 168.29709 112.12287 168.21712 C 111.60604 168.11598 111.0541 168.07295 110.43925 168.07295 C 108.64256 168.07295 107.03243 168.53476 105.9372 169.68215 L 105.93359 169.68422 L 105.93152 169.68783 C 104.94386 170.73499 104.44324 172.15865 104.44324 173.65503 C 104.44324 174.00156 104.46443 174.34263 104.50783 174.67823 L 104.51145 174.70562 L 104.51558 174.733 C 104.58028 175.12087 104.69625 175.50101 104.87474 175.858 L 104.88662 175.88125 L 104.89851 175.90296 C 105.12526 176.32158 105.4678 176.69219 105.86537 176.95147 L 105.88449 176.96336 L 105.90413 176.97524 C 106.01859 177.04491 106.13561 177.10068 106.25346 177.14991 C 106.39884 177.30276 106.5598 177.43926 106.73199 177.55557 C 106.85222 177.6958 106.98413 177.82429 107.12731 177.93901 C 107.31914 178.17562 107.54396 178.38768 107.79497 178.55138 L 107.81409 178.56481 L 107.83373 178.5767 C 108.08678 178.73073 108.35032 178.83078 108.61456 178.89244 C 108.67905 178.98832 108.74735 179.08189 108.82385 179.17046 L 108.83573 179.18441 L 108.84762 179.1963 C 109.11882 179.49606 109.45455 179.72388 109.80828 179.88411 C 109.94542 180.02644 110.09746 180.15069 110.2589 180.25928 C 110.27572 180.2799 110.289 180.30264 110.30645 180.32284 L 110.31833 180.3368 L 110.3297 180.35023 C 110.43487 180.46648 110.55202 180.56884 110.67386 180.66391 C 110.70135 180.69893 110.72471 180.73649 110.75396 180.77036 L 110.76533 180.7838 L 110.77722 180.79775 C 111.1314 181.18921 111.59515 181.46009 112.06603 181.61424 C 112.5564 181.78043 113.05302 181.83645 113.57808 181.83645 C 114.30661 181.83645 115.0093 181.52488 115.61723 181.08455 C 116.22871 181.58332 116.98279 181.78374 117.69928 181.78374 C 118.32288 181.78374 118.9295 181.59676 119.49193 181.31141 C 119.83588 181.62748 120.29617 181.79769 120.58385 181.79769 C 120.89975 181.79769 121.43603 181.65501 121.78326 181.26439 C 121.80016 181.24539 121.78688 181.23078 121.80238 181.21168 C 121.99943 181.25058 122.06609 181.2405 122.35739 181.32898 L 122.36721 181.33312 L 122.37909 181.33674 C 122.73283 181.43844 123.0101 181.5154 123.22659 181.57135 C 123.33484 181.59935 123.42579 181.62193 123.51753 181.64163 C 123.60923 181.66133 123.61008 181.69434 123.94902 181.69434 C 124.24182 181.69434 124.69091 181.61469 125.07247 181.28403 C 125.08497 181.27313 125.07909 181.25802 125.09159 181.24682 C 125.69943 181.64216 126.38137 181.83696 127.06821 181.83696 C 127.87096 181.83696 128.65662 181.56647 129.31665 181.09282 C 129.92148 181.57022 130.6248 181.77184 131.35632 181.81733 C 131.41757 181.84035 131.47302 181.85624 131.53047 181.87004 C 131.56346 181.92059 131.59935 181.97099 131.64261 182.02041 C 131.78896 182.18763 131.94275 182.29009 132.09426 182.36975 C 132.13015 182.42702 132.1719 182.48381 132.22087 182.53976 C 132.32672 182.6607 132.43743 182.75407 132.54798 182.82708 C 132.58248 182.88102 132.6217 182.93454 132.66787 182.98728 C 133.10259 183.48396 133.61796 183.52627 133.87917 183.52627 C 134.07352 183.52627 134.36936 183.51618 135.07238 183.49888 C 135.76823 183.48168 136.28355 183.47356 136.5958 183.47356 C 136.97261 183.47356 137.58651 183.48148 138.42204 183.49888 C 139.26406 183.51628 139.71161 183.52627 139.90826 183.52627 C 140.22431 183.52627 140.71432 183.38785 141.041 183.06118 C 141.36767 182.7345 141.47091 182.35663 141.50196 182.10826 L 141.51384 182.01473 L 141.51384 181.92275 C 141.51384 181.85875 141.42009 181.7475 141.40842 181.66695 L 144.22686 181.66695 L 143.55558 181.21943 L 143.94935 181.21943 C 144.57955 181.64403 145.36014 181.83696 146.10736 181.83696 C 146.84838 181.83696 147.56113 181.54022 148.18372 181.11246 C 148.85862 181.67678 149.68279 181.83696 150.48849 181.83696 C 151.3172 181.83696 152.13645 181.55344 152.80256 181.03391 C 152.95142 181.13401 153.0703 181.30335 153.22476 181.36826 C 154.1107 181.74056 155.09196 181.83696 156.31036 181.83696 C 157.7962 181.83696 159.09052 181.59282 160.12718 180.83857 C 161.16385 180.08432 161.72295 178.78331 161.72295 177.49097 C 161.72295 176.71127 161.46886 175.93585 161.02531 175.28387 C 161.48055 174.791 161.74827 174.12599 161.74827 173.53979 C 161.74827 172.77437 161.27694 172.01382 160.6827 171.5363 C 160.4957 171.30766 160.28166 171.10723 160.05173 170.95184 C 159.78088 170.63775 159.45644 170.38094 159.12155 170.2294 C 159.09558 170.21765 159.06807 170.21165 159.04197 170.20046 C 158.79419 169.94185 158.5101 169.73026 158.21877 169.59843 C 157.39789 169.22699 156.5158 169.13955 155.44529 169.13955 C 154.11747 169.13955 152.98502 169.39799 152.03413 169.99117 C 151.96508 169.96509 151.89891 169.94945 151.83259 169.93278 C 151.823 169.88273 151.80801 169.83286 151.75766 169.7762 C 151.41045 169.38557 150.87469 169.24342 150.55877 169.24342 C 150.21592 169.24342 149.6557 169.45432 149.33765 169.83666 C 149.01113 169.78896 148.74262 169.77796 148.25193 169.62427 L 148.2695 169.62996 C 147.31451 169.31812 146.42574 169.13955 145.56838 169.13955 C 144.44534 169.13955 143.44037 169.64275 142.6099 170.36169 C 142.48355 170.27965 142.35225 170.2062 142.21561 170.14207 C 141.5452 169.45132 140.55246 169.13955 139.61732 169.13955 C 138.87138 169.13955 138.15593 169.44072 137.53114 169.87232 C 136.86138 169.30785 136.03755 169.13955 135.23619 169.13955 C 135.17773 169.13955 135.1191 169.14405 135.06049 169.14626 C 134.95293 169.022 134.83358 168.912 134.70599 168.81554 C 134.53105 168.58885 134.32539 168.39062 134.09052 168.24916 C 133.92062 168.03875 133.72508 167.85392 133.50245 167.72155 C 133.37937 167.64836 133.252 167.59373 133.12469 167.53913 C 132.96922 167.36085 132.79313 167.2053 132.59759 167.08903 C 131.95556 166.70729 131.25356 166.59293 130.53312 166.59293 L 130.53312 166.5919 z M 143.19126 180.52955 C 143.22745 180.56178 143.26369 180.59385 143.30133 180.62412 C 143.32014 180.64799 143.34127 180.66923 143.36076 180.69233 L 143.15405 180.56831 C 143.16641 180.55533 143.17843 180.5421 143.19126 180.52955 z " />
      <g
         id="g140"
         transform="translate(0.27131761,26.105992)">
        <text
           xml:space="preserve"
           style="font-style:normal;font-variant:normal;font-weight:normal;font-stretch:normal;font-size:12.9962px;line-height:1.1;font-family:'Albatross Cursive';-inkscape-font-specification:'Albatross Cursive, Normal';font-variant-ligatures:normal;font-variant-caps:normal;font-variant-numeric:normal;font-variant-east-asian:normal;text-align:center;writing-mode:lr-tb;direction:ltr;text-anchor:middle;fill:#f5f4ef;fill-opacity:1;stroke:#7fc9c2;stroke-width:3;stroke-linecap:round;stroke-dasharray:none;stroke-opacity:1;paint-order:stroke fill markers"
           x="133.83508"
           y="154.08781"
           id="text7"><tspan
             sodipodi:role="line"
             id="tspan7"
             style="font-style:normal;font-variant:normal;font-weight:normal;font-stretch:normal;font-size:12.9962px;font-family:'Albatross Cursive';-inkscape-font-specification:'Albatross Cursive, Normal';font-variant-ligatures:normal;font-variant-caps:normal;font-variant-numeric:normal;font-variant-east-asian:normal;fill:#f5f4ef;fill-opacity:1;stroke:#7fc9c2;stroke-width:3;stroke-dasharray:none;stroke-opacity:1"
             x="133.83508"
             y="154.08781">Unipas</tspan></text>
        <text
           xml:space="preserve"
           style="font-style:normal;font-variant:normal;font-weight:normal;font-stretch:normal;font-size:12.9962px;line-height:1.1;font-family:'Albatross Cursive';-inkscape-font-specification:'Albatross Cursive, Normal';font-variant-ligatures:normal;font-variant-caps:normal;font-variant-numeric:normal;font-variant-east-asian:normal;text-align:center;writing-mode:lr-tb;direction:ltr;text-anchor:middle;fill:#f5f4ef;fill-opacity:1;stroke:#f0525a;stroke-width:3;stroke-linecap:round;stroke-dasharray:none;stroke-opacity:1;paint-order:stroke fill markers"
           x="133.38799"
           y="153.64072"
           id="text6"><tspan
             sodipodi:role="line"
             id="tspan6"
             style="font-style:normal;font-variant:normal;font-weight:normal;font-stretch:normal;font-size:12.9962px;font-family:'Albatross Cursive';-inkscape-font-specification:'Albatross Cursive, Normal';font-variant-ligatures:normal;font-variant-caps:normal;font-variant-numeric:normal;font-variant-east-asian:normal;fill:#f5f4ef;fill-opacity:1;stroke:#f0525a;stroke-width:3;stroke-dasharray:none;stroke-opacity:1"
             x="133.38799"
             y="153.64072">Unipas</tspan></text>
        <text
           xml:space="preserve"
           style="font-style:normal;font-variant:normal;font-weight:normal;font-stretch:normal;font-size:12.9962px;line-height:1.1;font-family:'Albatross Cursive';-inkscape-font-specification:'Albatross Cursive, Normal';font-variant-ligatures:normal;font-variant-caps:normal;font-variant-numeric:normal;font-variant-east-asian:normal;text-align:center;writing-mode:lr-tb;direction:ltr;text-anchor:middle;fill:#f5f4ef;fill-opacity:1;stroke:#f6b65f;stroke-width:3;stroke-linecap:round;stroke-dasharray:none;stroke-opacity:1;paint-order:stroke fill markers"
           x="132.80859"
           y="153.11972"
           id="text5"><tspan
             sodipodi:role="line"
             id="tspan5"
             style="font-style:normal;font-variant:normal;font-weight:normal;font-stretch:normal;font-size:12.9962px;font-family:'Albatross Cursive';-inkscape-font-specification:'Albatross Cursive, Normal';font-variant-ligatures:normal;font-variant-caps:normal;font-variant-numeric:normal;font-variant-east-asian:normal;fill:#f5f4ef;fill-opacity:1;stroke:#f6b65f;stroke-width:3;stroke-dasharray:none;stroke-opacity:1"
             x="132.80859"
             y="153.11972">Unipas</tspan></text>
        <text
           xml:space="preserve"
           style="font-style:normal;font-variant:normal;font-weight:normal;font-stretch:normal;font-size:12.9962px;line-height:1.1;font-family:'Albatross Cursive';-inkscape-font-specification:'Albatross Cursive, Normal';font-variant-ligatures:normal;font-variant-caps:normal;font-variant-numeric:normal;font-variant-east-asian:normal;text-align:center;writing-mode:lr-tb;direction:ltr;text-anchor:middle;fill:#f5f4ef;fill-opacity:1;stroke-width:0.920994;stroke-linecap:round;paint-order:stroke fill markers"
           x="131.9053"
           y="152.48743"
           id="text3"><tspan
             sodipodi:role="line"
             id="tspan3"
             style="font-style:normal;font-variant:normal;font-weight:normal;font-stretch:normal;font-size:12.9962px;font-family:'Albatross Cursive';-inkscape-font-specification:'Albatross Cursive, Normal';font-variant-ligatures:normal;font-variant-caps:normal;font-variant-numeric:normal;font-variant-east-asian:normal;fill:#f5f4ef;fill-opacity:1;stroke-width:0.920994"
             x="131.9053"
             y="152.48743">Unipas</tspan></text>
        <text
           xml:space="preserve"
           style="font-style:normal;font-variant:normal;font-weight:normal;font-stretch:normal;font-size:12.9962px;line-height:1.1;font-family:'Albatross Cursive';-inkscape-font-specification:'Albatross Cursive, Normal';font-variant-ligatures:normal;font-variant-caps:normal;font-variant-numeric:normal;font-variant-east-asian:normal;text-align:center;writing-mode:lr-tb;direction:ltr;text-anchor:middle;fill:#f5f4ef;fill-opacity:1;stroke:#3d313b;stroke-width:3;stroke-linecap:round;stroke-dasharray:none;stroke-opacity:1;paint-order:stroke fill markers"
           x="131.9053"
           y="152.48743"
           id="text4"><tspan
             sodipodi:role="line"
             id="tspan4"
             style="font-style:normal;font-variant:normal;font-weight:normal;font-stretch:normal;font-size:12.9962px;font-family:'Albatross Cursive';-inkscape-font-specification:'Albatross Cursive, Normal';font-variant-ligatures:normal;font-variant-caps:normal;font-variant-numeric:normal;font-variant-east-asian:normal;fill:#f5f4ef;fill-opacity:1;stroke:#3d313b;stroke-width:3;stroke-dasharray:none;stroke-opacity:1"
             x="131.9053"
             y="152.48743">Unipas</tspan></text>
      </g>
    </g>
    <g
       id="g142"
       transform="translate(0.38954775,-0.03707516)">
      <text
         xml:space="preserve"
         style="font-style:normal;font-variant:normal;font-weight:normal;font-stretch:normal;font-size:9.95183px;line-height:1.1;font-family:'Albatross Cursive';-inkscape-font-specification:'Albatross Cursive, Normal';font-variant-ligatures:normal;font-variant-caps:normal;font-variant-numeric:normal;font-variant-east-asian:normal;text-align:center;writing-mode:lr-tb;direction:ltr;text-anchor:middle;fill:#f5f4ef;fill-opacity:1;stroke:#f5f4ef;stroke-width:5;stroke-linecap:round;stroke-dasharray:none;stroke-opacity:1;paint-order:stroke fill markers"
         x="131.08813"
         y="135.89696"
         id="text142"
         inkscape:export-filename="../../front-end/src/app/favicon.ico"
         inkscape:export-xdpi="113.5599"
         inkscape:export-ydpi="113.5599"><tspan
           sodipodi:role="line"
           id="tspan142"
           style="stroke:#f5f4ef;stroke-width:5;stroke-dasharray:none;stroke-opacity:1"
           x="131.08813"
           y="135.89696">U</tspan></text>
      <text
         xml:space="preserve"
         style="font-style:normal;font-variant:normal;font-weight:normal;font-stretch:normal;font-size:9.95183px;line-height:1.1;font-family:'Albatross Cursive';-inkscape-font-specification:'Albatross Cursive, Normal';font-variant-ligatures:normal;font-variant-caps:normal;font-variant-numeric:normal;font-variant-east-asian:normal;text-align:center;writing-mode:lr-tb;direction:ltr;text-anchor:middle;fill:#f5f4ef;fill-opacity:1;stroke:#3d313b;stroke-width:3.52624;stroke-linecap:round;stroke-dasharray:none;stroke-opacity:1;paint-order:stroke fill markers"
         x="131.08813"
         y="135.89696"
         id="text141"><tspan
           sodipodi:role="line"
           id="tspan141"
           style="stroke:#3d313b;stroke-width:3.52624;stroke-opacity:1"
           x="131.08813"
           y="135.89696">U</tspan></text>
      <text
         xml:space="preserve"
         style="font-style:normal;font-variant:normal;font-weight:normal;font-stretch:normal;font-size:9.95183px;line-height:1.1;font-family:'Albatross Cursive';-inkscape-font-specification:'Albatross Cursive, Normal';font-variant-ligatures:normal;font-variant-caps:normal;font-variant-numeric:normal;font-variant-east-asian:normal;text-align:center;writing-mode:lr-tb;direction:ltr;text-anchor:middle;fill:#f5f4ef;fill-opacity:1;stroke:none;stroke-width:3.52624;stroke-linecap:round;stroke-dasharray:none;stroke-opacity:1;paint-order:stroke fill markers"
         x="131.08813"
         y="135.89696"
         id="text140"><tspan
           sodipodi:role="line"
           id="tspan140"
           style="stroke:none;stroke-width:3.52624"
           x="131.08813"
           y="135.89696">U</tspan></text>
    </g>
  </g>
</svg>
